<mxfile host="Electron" agent="Mozilla/5.0 (Windows NT 10.0; Win64; x64) AppleWebKit/537.36 (KHTML, like Gecko) draw.io/24.7.8 Chrome/128.0.6613.36 Electron/32.0.1 Safari/537.36" version="24.7.8">
  <diagram name="Page-1" id="KyF_-hfN1zzcMazbTc1z">
    <mxGraphModel dx="1036" dy="606" grid="1" gridSize="10" guides="1" tooltips="1" connect="1" arrows="1" fold="1" page="1" pageScale="1" pageWidth="850" pageHeight="1100" math="0" shadow="0">
      <root>
        <mxCell id="0" />
        <mxCell id="1" parent="0" />
        <mxCell id="qNKAkpNxipHgMlaZcwZH-1" value="User" style="shape=umlLifeline;perimeter=lifelinePerimeter;whiteSpace=wrap;container=1;dropTarget=0;collapsible=0;recursiveResize=0;outlineConnect=0;portConstraint=eastwest;newEdgeStyle={&quot;edgeStyle&quot;:&quot;elbowEdgeStyle&quot;,&quot;elbow&quot;:&quot;vertical&quot;,&quot;curved&quot;:0,&quot;rounded&quot;:0};size=65;" vertex="1" parent="1">
          <mxGeometry x="20" y="20" width="150" height="1232" as="geometry" />
        </mxCell>
        <mxCell id="qNKAkpNxipHgMlaZcwZH-2" value="Admin" style="shape=umlLifeline;perimeter=lifelinePerimeter;whiteSpace=wrap;container=1;dropTarget=0;collapsible=0;recursiveResize=0;outlineConnect=0;portConstraint=eastwest;newEdgeStyle={&quot;edgeStyle&quot;:&quot;elbowEdgeStyle&quot;,&quot;elbow&quot;:&quot;vertical&quot;,&quot;curved&quot;:0,&quot;rounded&quot;:0};size=65;" vertex="1" parent="1">
          <mxGeometry x="220" y="20" width="150" height="1232" as="geometry" />
        </mxCell>
        <mxCell id="qNKAkpNxipHgMlaZcwZH-3" value="Website" style="shape=umlLifeline;perimeter=lifelinePerimeter;whiteSpace=wrap;container=1;dropTarget=0;collapsible=0;recursiveResize=0;outlineConnect=0;portConstraint=eastwest;newEdgeStyle={&quot;edgeStyle&quot;:&quot;elbowEdgeStyle&quot;,&quot;elbow&quot;:&quot;vertical&quot;,&quot;curved&quot;:0,&quot;rounded&quot;:0};size=65;" vertex="1" parent="1">
          <mxGeometry x="506" y="20" width="150" height="1232" as="geometry" />
        </mxCell>
        <mxCell id="qNKAkpNxipHgMlaZcwZH-4" value="Database" style="shape=umlLifeline;perimeter=lifelinePerimeter;whiteSpace=wrap;container=1;dropTarget=0;collapsible=0;recursiveResize=0;outlineConnect=0;portConstraint=eastwest;newEdgeStyle={&quot;edgeStyle&quot;:&quot;elbowEdgeStyle&quot;,&quot;elbow&quot;:&quot;vertical&quot;,&quot;curved&quot;:0,&quot;rounded&quot;:0};size=65;" vertex="1" parent="1">
          <mxGeometry x="767" y="20" width="150" height="1232" as="geometry" />
        </mxCell>
        <mxCell id="qNKAkpNxipHgMlaZcwZH-5" value="alt" style="shape=umlFrame;dashed=1;pointerEvents=0;dropTarget=0;strokeColor=#B3B3B3;height=20;width=30" vertex="1" parent="1">
          <mxGeometry x="84" y="419" width="769" height="310" as="geometry" />
        </mxCell>
        <mxCell id="qNKAkpNxipHgMlaZcwZH-6" value="[Valid User]" style="text;strokeColor=none;fillColor=none;align=center;verticalAlign=middle;whiteSpace=wrap;" vertex="1" parent="qNKAkpNxipHgMlaZcwZH-5">
          <mxGeometry x="30" width="739" height="20" as="geometry" />
        </mxCell>
        <mxCell id="qNKAkpNxipHgMlaZcwZH-7" value="[Invalid Credentials]" style="shape=line;dashed=1;whiteSpace=wrap;verticalAlign=top;labelPosition=center;verticalLabelPosition=middle;align=center;strokeColor=#B3B3B3;" vertex="1" parent="qNKAkpNxipHgMlaZcwZH-5">
          <mxGeometry y="160" width="769" height="3" as="geometry" />
        </mxCell>
        <mxCell id="qNKAkpNxipHgMlaZcwZH-8" value="alt" style="shape=umlFrame;dashed=1;pointerEvents=0;dropTarget=0;strokeColor=#B3B3B3;height=20;width=30" vertex="1" parent="1">
          <mxGeometry x="284" y="847" width="569" height="310" as="geometry" />
        </mxCell>
        <mxCell id="qNKAkpNxipHgMlaZcwZH-9" value="[Valid Admin]" style="text;strokeColor=none;fillColor=none;align=center;verticalAlign=middle;whiteSpace=wrap;" vertex="1" parent="qNKAkpNxipHgMlaZcwZH-8">
          <mxGeometry x="30" width="539" height="20" as="geometry" />
        </mxCell>
        <mxCell id="qNKAkpNxipHgMlaZcwZH-10" value="[Invalid Credentials]" style="shape=line;dashed=1;whiteSpace=wrap;verticalAlign=top;labelPosition=center;verticalLabelPosition=middle;align=center;strokeColor=#B3B3B3;" vertex="1" parent="qNKAkpNxipHgMlaZcwZH-8">
          <mxGeometry y="160" width="569" height="3" as="geometry" />
        </mxCell>
        <mxCell id="qNKAkpNxipHgMlaZcwZH-11" value="Register (Email, Password, Name, etc.)" style="verticalAlign=bottom;edgeStyle=elbowEdgeStyle;elbow=vertical;curved=0;rounded=0;endArrow=block;" edge="1" parent="1" source="qNKAkpNxipHgMlaZcwZH-1" target="qNKAkpNxipHgMlaZcwZH-3">
          <mxGeometry relative="1" as="geometry">
            <Array as="points">
              <mxPoint x="347" y="129" />
            </Array>
          </mxGeometry>
        </mxCell>
        <mxCell id="qNKAkpNxipHgMlaZcwZH-12" value="Store User Credentials" style="verticalAlign=bottom;edgeStyle=elbowEdgeStyle;elbow=vertical;curved=0;rounded=0;endArrow=block;" edge="1" parent="1" source="qNKAkpNxipHgMlaZcwZH-3" target="qNKAkpNxipHgMlaZcwZH-4">
          <mxGeometry relative="1" as="geometry">
            <Array as="points">
              <mxPoint x="720" y="183" />
            </Array>
          </mxGeometry>
        </mxCell>
        <mxCell id="qNKAkpNxipHgMlaZcwZH-13" value="Registration Successful" style="verticalAlign=bottom;edgeStyle=elbowEdgeStyle;elbow=vertical;curved=0;rounded=0;dashed=1;dashPattern=2 3;endArrow=block;" edge="1" parent="1" source="qNKAkpNxipHgMlaZcwZH-4" target="qNKAkpNxipHgMlaZcwZH-3">
          <mxGeometry relative="1" as="geometry">
            <Array as="points">
              <mxPoint x="723" y="237" />
            </Array>
          </mxGeometry>
        </mxCell>
        <mxCell id="qNKAkpNxipHgMlaZcwZH-14" value="Confirmation Message" style="verticalAlign=bottom;edgeStyle=elbowEdgeStyle;elbow=vertical;curved=0;rounded=0;dashed=1;dashPattern=2 3;endArrow=block;" edge="1" parent="1" source="qNKAkpNxipHgMlaZcwZH-3" target="qNKAkpNxipHgMlaZcwZH-1">
          <mxGeometry relative="1" as="geometry">
            <Array as="points">
              <mxPoint x="350" y="291" />
            </Array>
          </mxGeometry>
        </mxCell>
        <mxCell id="qNKAkpNxipHgMlaZcwZH-15" value="Login (Email, Password)" style="verticalAlign=bottom;edgeStyle=elbowEdgeStyle;elbow=vertical;curved=0;rounded=0;endArrow=block;" edge="1" parent="1" source="qNKAkpNxipHgMlaZcwZH-1" target="qNKAkpNxipHgMlaZcwZH-3">
          <mxGeometry relative="1" as="geometry">
            <Array as="points">
              <mxPoint x="347" y="345" />
            </Array>
          </mxGeometry>
        </mxCell>
        <mxCell id="qNKAkpNxipHgMlaZcwZH-16" value="Validate Credentials" style="verticalAlign=bottom;edgeStyle=elbowEdgeStyle;elbow=vertical;curved=0;rounded=0;endArrow=block;" edge="1" parent="1" source="qNKAkpNxipHgMlaZcwZH-3" target="qNKAkpNxipHgMlaZcwZH-4">
          <mxGeometry relative="1" as="geometry">
            <Array as="points">
              <mxPoint x="720" y="399" />
            </Array>
          </mxGeometry>
        </mxCell>
        <mxCell id="qNKAkpNxipHgMlaZcwZH-17" value="Authentication Successful" style="verticalAlign=bottom;edgeStyle=elbowEdgeStyle;elbow=vertical;curved=0;rounded=0;dashed=1;dashPattern=2 3;endArrow=block;" edge="1" parent="1" source="qNKAkpNxipHgMlaZcwZH-4" target="qNKAkpNxipHgMlaZcwZH-3">
          <mxGeometry relative="1" as="geometry">
            <Array as="points">
              <mxPoint x="723" y="500" />
            </Array>
          </mxGeometry>
        </mxCell>
        <mxCell id="qNKAkpNxipHgMlaZcwZH-18" value="Redirect to User Dashboard" style="verticalAlign=bottom;edgeStyle=elbowEdgeStyle;elbow=vertical;curved=0;rounded=0;dashed=1;dashPattern=2 3;endArrow=block;" edge="1" parent="1" source="qNKAkpNxipHgMlaZcwZH-3" target="qNKAkpNxipHgMlaZcwZH-1">
          <mxGeometry relative="1" as="geometry">
            <Array as="points">
              <mxPoint x="350" y="554" />
            </Array>
          </mxGeometry>
        </mxCell>
        <mxCell id="qNKAkpNxipHgMlaZcwZH-19" value="Authentication Failed" style="verticalAlign=bottom;edgeStyle=elbowEdgeStyle;elbow=vertical;curved=0;rounded=0;dashed=1;dashPattern=2 3;endArrow=block;" edge="1" parent="1" source="qNKAkpNxipHgMlaZcwZH-4" target="qNKAkpNxipHgMlaZcwZH-3">
          <mxGeometry relative="1" as="geometry">
            <Array as="points">
              <mxPoint x="723" y="655" />
            </Array>
          </mxGeometry>
        </mxCell>
        <mxCell id="qNKAkpNxipHgMlaZcwZH-20" value="Show Error Message" style="verticalAlign=bottom;edgeStyle=elbowEdgeStyle;elbow=vertical;curved=0;rounded=0;dashed=1;dashPattern=2 3;endArrow=block;" edge="1" parent="1" source="qNKAkpNxipHgMlaZcwZH-3" target="qNKAkpNxipHgMlaZcwZH-1">
          <mxGeometry relative="1" as="geometry">
            <Array as="points">
              <mxPoint x="350" y="709" />
            </Array>
          </mxGeometry>
        </mxCell>
        <mxCell id="qNKAkpNxipHgMlaZcwZH-21" value="Login (Admin Email, Password)" style="verticalAlign=bottom;edgeStyle=elbowEdgeStyle;elbow=vertical;curved=0;rounded=0;endArrow=block;" edge="1" parent="1" source="qNKAkpNxipHgMlaZcwZH-2" target="qNKAkpNxipHgMlaZcwZH-3">
          <mxGeometry relative="1" as="geometry">
            <Array as="points">
              <mxPoint x="447" y="773" />
            </Array>
          </mxGeometry>
        </mxCell>
        <mxCell id="qNKAkpNxipHgMlaZcwZH-22" value="Validate Admin Credentials" style="verticalAlign=bottom;edgeStyle=elbowEdgeStyle;elbow=vertical;curved=0;rounded=0;endArrow=block;" edge="1" parent="1" source="qNKAkpNxipHgMlaZcwZH-3" target="qNKAkpNxipHgMlaZcwZH-4">
          <mxGeometry relative="1" as="geometry">
            <Array as="points">
              <mxPoint x="720" y="827" />
            </Array>
          </mxGeometry>
        </mxCell>
        <mxCell id="qNKAkpNxipHgMlaZcwZH-23" value="Authentication Successful" style="verticalAlign=bottom;edgeStyle=elbowEdgeStyle;elbow=vertical;curved=0;rounded=0;dashed=1;dashPattern=2 3;endArrow=block;" edge="1" parent="1" source="qNKAkpNxipHgMlaZcwZH-4" target="qNKAkpNxipHgMlaZcwZH-3">
          <mxGeometry relative="1" as="geometry">
            <Array as="points">
              <mxPoint x="723" y="928" />
            </Array>
          </mxGeometry>
        </mxCell>
        <mxCell id="qNKAkpNxipHgMlaZcwZH-24" value="Redirect to Admin Dashboard" style="verticalAlign=bottom;edgeStyle=elbowEdgeStyle;elbow=vertical;curved=0;rounded=0;dashed=1;dashPattern=2 3;endArrow=block;" edge="1" parent="1" source="qNKAkpNxipHgMlaZcwZH-3" target="qNKAkpNxipHgMlaZcwZH-2">
          <mxGeometry relative="1" as="geometry">
            <Array as="points">
              <mxPoint x="450" y="982" />
            </Array>
          </mxGeometry>
        </mxCell>
        <mxCell id="qNKAkpNxipHgMlaZcwZH-25" value="Authentication Failed" style="verticalAlign=bottom;edgeStyle=elbowEdgeStyle;elbow=vertical;curved=0;rounded=0;dashed=1;dashPattern=2 3;endArrow=block;" edge="1" parent="1" source="qNKAkpNxipHgMlaZcwZH-4" target="qNKAkpNxipHgMlaZcwZH-3">
          <mxGeometry relative="1" as="geometry">
            <Array as="points">
              <mxPoint x="723" y="1083" />
            </Array>
          </mxGeometry>
        </mxCell>
        <mxCell id="qNKAkpNxipHgMlaZcwZH-26" value="Show Error Message" style="verticalAlign=bottom;edgeStyle=elbowEdgeStyle;elbow=vertical;curved=0;rounded=0;dashed=1;dashPattern=2 3;endArrow=block;" edge="1" parent="1" source="qNKAkpNxipHgMlaZcwZH-3" target="qNKAkpNxipHgMlaZcwZH-2">
          <mxGeometry relative="1" as="geometry">
            <Array as="points">
              <mxPoint x="450" y="1137" />
            </Array>
          </mxGeometry>
        </mxCell>
      </root>
    </mxGraphModel>
  </diagram>
</mxfile>
